<svg width="146" height="68" viewBox="0 0 146 68" fill="none" xmlns="http://www.w3.org/2000/svg">
<path fill-rule="evenodd" clip-rule="evenodd" d="M73.1229 0.979696C72.4471 0.979183 71.7764 0.978674 71.1177 0.960938C72.4195 1.69034 73.5435 2.62814 74.5643 3.65451C74.683 3.66886 74.8029 3.68282 74.9237 3.69688L74.9238 3.6969C76.338 3.86154 77.8704 4.03994 78.9113 5.01432C80.6431 6.71278 80.4768 9.67727 78.6302 11.2559C77.122 12.6678 74.9371 13.1367 72.8955 13.5535C75.2295 17.2474 77.6439 20.9621 80.884 24.0725C82.2374 25.3281 83.717 26.6358 85.6553 27.0787C86.7303 27.2008 87.8099 27.1243 88.8897 27.0479C89.515 27.0036 90.1404 26.9594 90.765 26.9536C85.2677 24.0198 81.5217 19.1349 77.943 14.4681L77.943 14.4681L77.793 14.2725C79.7772 13.8557 81.7442 13.1055 83.1148 11.6779C85.7241 9.14064 85.2252 4.59752 82.0424 2.64377C79.4205 0.984476 76.219 0.982046 73.1229 0.979696ZM60.9381 1.03778C59.0333 1.09331 57.1284 1.14885 55.2325 0.976603V1.185C56.6547 1.81541 57.2282 3.25858 57.1766 4.6184C57.1995 10.8704 57.1938 17.1276 57.1766 23.3796C57.2683 24.7759 56.6318 26.1566 55.2325 26.8443V27.1256C57.2956 26.8531 59.3803 26.9045 61.4581 26.9558C62.0024 26.9692 62.5463 26.9826 63.0891 26.9902C62.2404 26.1149 61.3113 25.151 61.3801 23.8954C61.319 19.7144 61.33 15.5314 61.3411 11.3476C61.3477 8.86332 61.3543 6.37876 61.3457 3.89421C63.7543 3.66497 66.5873 3.40447 68.5199 5.01436C70.2518 6.69719 70.0625 9.63563 68.2733 11.2403C66.8379 12.5739 64.7937 13.0476 62.8607 13.4955C62.7472 13.5219 62.634 13.5481 62.5214 13.5744C62.6214 13.731 62.7215 13.888 62.8218 14.0451C65.6059 18.4085 68.4907 22.9296 72.9357 26.0576C74.5646 27.3179 76.651 27.1887 78.6689 27.0636H78.669C79.237 27.0284 79.7995 26.9936 80.3449 26.9902C74.8281 23.9371 71.0145 19.0293 67.4131 14.283C69.4891 13.788 71.6396 13.0326 72.9529 11.3966C74.9829 9.15631 74.8912 5.55099 72.6489 3.46178C71.2726 2.10717 69.2654 1.46113 67.3099 1.16937C65.1945 0.913684 63.0664 0.975729 60.9381 1.03778ZM140.906 61.2028L142.187 63.0293L140.498 65.1222C140.395 65.2516 140.304 65.361 140.223 65.4533C140.142 65.5456 140.055 65.6369 139.963 65.7282H141.512C141.427 65.7029 141.352 65.6538 141.296 65.587C141.244 65.5253 141.216 65.4475 141.216 65.3673C141.219 65.3117 141.234 65.2574 141.26 65.2081C141.303 65.124 141.355 65.0444 141.414 64.9704L142.538 63.5122L143.74 65.3026C143.796 65.3949 143.857 65.4838 143.924 65.569C143.971 65.6257 144.023 65.6789 144.078 65.7282H145.297C145.157 65.6637 145.028 65.5785 144.914 65.4756C144.786 65.3568 144.673 65.2236 144.576 65.0787L143.066 62.9211L144.864 60.6764H143.462C143.541 60.7001 143.612 60.742 143.671 60.7985C143.72 60.8464 143.747 60.9112 143.748 60.9789C143.746 61.0356 143.731 61.0911 143.704 61.1413C143.673 61.2056 143.637 61.2674 143.596 61.3259L142.745 62.4445L141.749 61.0224C141.67 60.8979 141.575 60.7841 141.466 60.6838C141.42 60.6541 141.247 60.6446 140.949 60.6541L140.325 60.6764C140.431 60.7258 140.529 60.7902 140.615 60.8675C140.724 60.9683 140.822 61.0808 140.906 61.2028ZM138.252 60.6764H136.829C136.937 60.7514 137.024 60.8518 137.082 60.9683C137.138 61.103 137.167 61.2472 137.167 61.3928V65.0012C137.168 65.1506 137.139 65.2988 137.082 65.4374C137.025 65.5527 136.937 65.6512 136.829 65.7229H138.252C138.14 65.6521 138.049 65.5536 137.988 65.4374C137.929 65.2996 137.904 65.1502 137.914 65.0012V61.3928C137.909 61.2475 137.935 61.1027 137.992 60.9683C138.051 60.8504 138.141 60.7498 138.252 60.6764ZM133.609 65.1147V63.1439L133.937 63.1153C134.047 63.1015 134.146 63.1015 134.235 63.1015C134.721 63.1008 135.072 63.1871 135.287 63.3604C135.394 63.4466 135.479 63.5562 135.535 63.6804C135.592 63.8046 135.618 63.9399 135.611 64.0757C135.621 64.3743 135.51 64.6647 135.304 64.8834C135.103 65.0864 134.792 65.1852 134.372 65.1795C134.254 65.1795 134.13 65.1752 133.997 65.1646C133.867 65.1556 133.737 65.1389 133.609 65.1147ZM133.947 60.6764H132.523C132.63 60.7516 132.717 60.8519 132.775 60.9683C132.832 61.1028 132.861 61.2472 132.859 61.3928V65.0012C132.862 65.1507 132.833 65.2991 132.775 65.4374C132.717 65.5527 132.63 65.6512 132.522 65.7229H134.305C135.029 65.7222 135.568 65.5743 135.923 65.2792C136.099 65.1318 136.238 64.9468 136.33 64.7385C136.422 64.5301 136.465 64.3038 136.455 64.0768C136.454 63.5907 136.289 63.2143 135.959 62.9476C135.63 62.6809 135.167 62.5475 134.57 62.5475C134.454 62.5475 134.307 62.5538 134.13 62.5655C133.953 62.5772 133.779 62.591 133.609 62.6048V61.3928C133.604 61.2476 133.63 61.1029 133.686 60.9683C133.745 60.8503 133.835 60.7497 133.947 60.6764ZM129.098 62.6685H126.274V61.3981C126.267 61.2486 126.293 61.0994 126.35 60.9608C126.412 60.8462 126.502 60.7484 126.611 60.6764H125.187C125.294 60.7506 125.382 60.8479 125.444 60.9608C125.505 61.0986 125.532 61.2482 125.525 61.3981V65.0065C125.533 65.1585 125.505 65.3103 125.444 65.4501C125.383 65.5621 125.295 65.6575 125.187 65.7282H126.611C126.501 65.6598 126.411 65.5639 126.35 65.4501C126.292 65.3095 126.266 65.1581 126.274 65.0065V63.2458H129.098V65.0033C129.106 65.1553 129.078 65.3071 129.017 65.4469C128.956 65.5589 128.867 65.6544 128.76 65.725H130.183C130.073 65.6566 129.983 65.5606 129.923 65.4469C129.864 65.3065 129.838 65.155 129.845 65.0033V61.3949C129.838 61.2453 129.865 61.096 129.923 60.9577C129.984 60.843 130.073 60.7452 130.183 60.6732H128.76C128.867 60.7474 128.954 60.8448 129.017 60.9577C129.078 61.0954 129.105 61.245 129.098 61.3949V62.6685ZM121.762 62.6685H118.938V61.3981C118.931 61.2486 118.957 61.0994 119.015 60.9608C119.076 60.8462 119.166 60.7484 119.276 60.6764H117.852C117.958 60.7506 118.046 60.8479 118.109 60.9608C118.169 61.0986 118.197 61.2482 118.189 61.3981V65.0065C118.197 65.1585 118.17 65.3103 118.109 65.4501C118.047 65.5621 117.959 65.6575 117.852 65.7282H119.276C119.165 65.6598 119.075 65.5639 119.015 65.4501C118.957 65.3095 118.931 65.1581 118.938 65.0065V63.2458H121.762V65.0033C121.77 65.1553 121.743 65.3071 121.681 65.4469C121.62 65.5589 121.532 65.6544 121.425 65.725H122.847C122.737 65.6566 122.648 65.5606 122.588 65.4469C122.529 65.3065 122.502 65.155 122.51 65.0033V61.3949C122.503 61.2453 122.529 61.096 122.588 60.9577C122.649 60.843 122.738 60.7452 122.847 60.6732H121.425C121.531 60.7474 121.619 60.8448 121.681 60.9577C121.742 61.0954 121.77 61.245 121.762 61.3949V62.6685ZM112.493 63.3243L113.29 61.3334L114.094 63.3243H112.493ZM113.806 60.6764H112.598C112.641 60.6945 112.68 60.7208 112.712 60.7538C112.744 60.7868 112.769 60.8258 112.786 60.8685C112.817 60.9657 112.811 61.0708 112.768 61.1636L111.296 64.8155C111.218 65.0225 111.116 65.2199 110.991 65.4034C110.895 65.535 110.774 65.6468 110.634 65.7324H112.014C111.898 65.6596 111.812 65.5498 111.769 65.4215C111.738 65.2598 111.762 65.0926 111.838 64.946L112.299 63.8125H114.29L114.844 65.1689C114.896 65.2777 114.904 65.4017 114.866 65.5159C114.816 65.6149 114.73 65.691 114.624 65.7282H116.195C116.06 65.6625 115.94 65.5717 115.841 65.4607C115.724 65.3176 115.633 65.1566 115.569 64.9842L113.806 60.6764ZM105.499 65.7282H107.04C106.892 65.6672 106.77 65.5587 106.693 65.4204C106.611 65.2558 106.574 65.0729 106.586 64.8897V61.2814C106.683 61.2623 106.785 61.2463 106.89 61.2347C106.906 61.2328 106.922 61.231 106.939 61.2291C107.026 61.219 107.111 61.2092 107.202 61.2092C107.544 61.2092 107.811 61.2934 108.004 61.4618C108.102 61.5502 108.179 61.6586 108.231 61.7793C108.282 61.9001 108.306 62.0304 108.301 62.1612C108.307 62.3283 108.272 62.4943 108.201 62.646C108.13 62.7978 108.023 62.9308 107.89 63.0346C107.593 63.251 107.232 63.3671 106.863 63.3657C106.968 63.3994 107.077 63.4235 107.186 63.4379C107.286 63.4522 107.387 63.4596 107.487 63.4602C107.986 63.4644 108.387 63.3286 108.69 63.0527C108.837 62.9223 108.954 62.7623 109.033 62.5836C109.111 62.4048 109.15 62.2115 109.145 62.0168C109.154 61.8319 109.119 61.6476 109.043 61.4784C108.966 61.3093 108.851 61.16 108.705 61.0426C108.411 60.8062 107.949 60.686 107.319 60.6817H105.499C105.607 60.7568 105.694 60.8571 105.753 60.9736C105.809 61.1084 105.837 61.2526 105.837 61.3981V65.0065C105.845 65.1585 105.817 65.3103 105.756 65.4501C105.695 65.5621 105.607 65.6575 105.499 65.7282ZM100.519 65.1285V63.1949L100.889 63.1694C100.989 63.1588 101.073 63.1588 101.142 63.1588C101.623 63.1581 101.972 63.2423 102.188 63.4114C102.294 63.4931 102.38 63.5984 102.438 63.7188C102.496 63.8391 102.524 63.9713 102.521 64.1044C102.517 64.4645 102.404 64.7362 102.184 64.9195C101.964 65.1027 101.663 65.1943 101.281 65.1943C101.16 65.1943 101.033 65.189 100.904 65.1795C100.775 65.17 100.646 65.1529 100.519 65.1285ZM102.562 60.6764H99.4336C99.5414 60.7521 99.6282 60.8532 99.686 60.9704C99.7428 61.1049 99.7714 61.2493 99.7701 61.3949V65.0033C99.7725 65.1528 99.7439 65.3013 99.686 65.4395C99.6287 65.5548 99.5417 65.6533 99.4336 65.725H101.216C101.941 65.725 102.48 65.5807 102.834 65.292C103.009 65.1496 103.148 64.9692 103.24 64.7649C103.332 64.5607 103.375 64.3383 103.366 64.115C103.362 63.6459 103.195 63.2805 102.866 63.0187C102.537 62.7569 102.074 62.626 101.477 62.626C101.388 62.626 101.261 62.6303 101.095 62.6398L100.516 62.6759V61.2548H102.056C102.216 61.249 102.376 61.2698 102.53 61.3164C102.643 61.3557 102.744 61.4212 102.826 61.5074V60.6584C102.783 60.6685 102.739 60.6745 102.695 60.6764H102.562ZM93.7389 60.6838L93.631 61.5923C93.8705 61.4486 94.129 61.3379 94.3991 61.2633C94.6523 61.1934 94.9139 61.1577 95.1769 61.1572C95.4278 61.1426 95.6767 61.2101 95.8845 61.3493C95.9678 61.4119 96.0344 61.4935 96.0786 61.587C96.1227 61.6806 96.1431 61.7833 96.138 61.8863C96.1384 62.0003 96.1117 62.1129 96.06 62.215C96.0083 62.3171 95.9331 62.4059 95.8403 62.4743C95.6497 62.6207 95.3487 62.6915 94.9374 62.6865C94.8531 62.6873 94.7689 62.6838 94.685 62.6759C94.6181 62.6685 94.5199 62.6525 94.4023 62.6292V63.3785C94.5015 63.3327 94.6063 63.2999 94.7141 63.2808C94.8508 63.2574 94.9895 63.2464 95.1283 63.2479C95.4534 63.2315 95.7748 63.3219 96.042 63.5048C96.1529 63.5875 96.2418 63.6953 96.3011 63.8191C96.3605 63.943 96.3886 64.0791 96.3829 64.2158C96.3864 64.3654 96.3512 64.5134 96.2807 64.646C96.2101 64.7785 96.1064 64.8913 95.9794 64.9736C95.7148 65.1512 95.3527 65.24 94.8932 65.24C94.6006 65.2426 94.3104 65.1889 94.0388 65.0818C93.7516 64.9598 93.4941 64.7789 93.2837 64.5512L93.4822 65.5329C93.6931 65.6437 93.919 65.7241 94.1531 65.7717C94.4083 65.8174 94.6673 65.839 94.9266 65.8364C95.6508 65.8357 96.2146 65.6878 96.618 65.3928C96.8147 65.2513 96.9728 65.0642 97.0784 64.8481C97.1839 64.6321 97.2337 64.3938 97.2232 64.1543C97.2334 63.8258 97.1108 63.5068 96.8823 63.267C96.7661 63.149 96.6262 63.056 96.4715 62.9939C96.3168 62.9318 96.1507 62.902 95.9837 62.9062V62.885C96.2592 62.8416 96.5126 62.7108 96.7054 62.5125C96.8877 62.3146 96.9841 62.0544 96.974 61.7876C96.9805 61.6137 96.9429 61.4409 96.8648 61.2847C96.7867 61.1286 96.6704 60.994 96.5263 60.8929C96.2286 60.6764 95.7738 60.5682 95.1618 60.5682C94.9199 60.5664 94.6783 60.5831 94.439 60.618C94.2072 60.654 93.9734 60.676 93.7389 60.6838ZM89.9633 60.9577L87.3517 64.7879V61.396C87.3447 61.2465 87.3709 61.0973 87.4283 60.9587C87.49 60.8441 87.5797 60.7463 87.6894 60.6743H86.2665C86.3729 60.7488 86.4606 60.846 86.5232 60.9587C86.583 61.0967 86.6103 61.2462 86.6031 61.396V65.0044C86.6108 65.1563 86.5835 65.3079 86.5232 65.448C86.4617 65.5597 86.3737 65.6551 86.2665 65.7261H87.3075C87.3504 65.6937 87.3908 65.6582 87.4283 65.6199C87.4776 65.5654 87.5231 65.5076 87.5642 65.4469L90.1758 61.6167V65.0065C90.1838 65.1585 90.1561 65.3103 90.0949 65.4501C90.0338 65.5621 89.9456 65.6575 89.8382 65.7282H91.261C91.1511 65.6595 91.0615 65.5636 91.0011 65.4501C90.9426 65.3096 90.9165 65.1581 90.9245 65.0065V61.3981C90.9169 61.2486 90.9431 61.0993 91.0011 60.9608C91.0627 60.8465 91.1519 60.7488 91.261 60.6764H90.2201C90.1741 60.7114 90.1312 60.7501 90.0917 60.7921C90.0443 60.8437 90.0014 60.8991 89.9633 60.9577ZM79.4176 61.2251V65.0065C79.418 65.1518 79.389 65.2957 79.3324 65.43C79.2747 65.5453 79.1873 65.6437 79.0789 65.7154H80.5028C80.3907 65.6449 80.2995 65.5464 80.2385 65.43C80.1791 65.2924 80.1539 65.1428 80.1652 64.9938V61.3854C80.1602 61.2401 80.1863 61.0955 80.2418 60.9608C80.3015 60.8429 80.3915 60.7423 80.5028 60.669C80.3792 60.669 80.2713 60.6693 80.1792 60.6696C80.0301 60.67 79.9222 60.6703 79.8556 60.669C79.8093 60.6681 79.7631 60.666 79.7168 60.6639C79.6552 60.6611 79.5936 60.6584 79.532 60.6584C79.27 60.6553 79.0969 60.651 79.0142 60.6489C78.9845 60.6482 78.9665 60.6478 78.9602 60.6478H78.8933C78.2777 60.6464 77.8146 60.7687 77.504 61.015C77.1933 61.2612 77.0379 61.6125 77.0379 62.0688C77.0349 62.2153 77.062 62.3608 77.1177 62.4967C77.1733 62.6326 77.2562 62.756 77.3615 62.8595C77.612 63.103 77.9368 63.2589 78.286 63.3031C77.9088 63.8652 77.4845 64.3952 77.0174 64.8876C76.6068 65.3065 76.24 65.5867 75.9171 65.7282L76.4565 65.76C76.5687 65.7717 76.6571 65.7717 76.7208 65.7717C77.0178 65.7653 77.3838 65.5255 77.8189 65.0521C78.254 64.5788 78.7161 63.9066 79.2051 63.0357C78.8763 63.0741 78.5443 62.995 78.2698 62.8128C78.1491 62.7356 78.0504 62.6294 77.9831 62.5042C77.9157 62.3791 77.8818 62.2391 77.8847 62.0975C77.8776 61.9729 77.8978 61.8482 77.9439 61.7319C77.9901 61.6156 78.0612 61.5105 78.1523 61.4236C78.3313 61.2623 78.5895 61.1816 78.9268 61.1816C79.0196 61.1816 79.1059 61.1848 79.1835 61.1922C79.2612 61.1996 79.34 61.2103 79.4176 61.2251ZM74.1318 65.0065V61.3981H74.1404C74.1277 61.2473 74.1526 61.0958 74.2127 60.9566C74.2781 60.8411 74.3715 60.7434 74.4846 60.6722H70.7511C70.8415 60.7041 70.9241 60.7544 70.9935 60.8196C71.063 60.8849 71.1179 60.9637 71.1545 61.0511C71.2376 61.2357 71.2861 61.5923 71.2861 62.123C71.2847 63.042 71.2128 63.7757 71.0704 64.3241C70.928 64.8724 70.7151 65.1466 70.4318 65.1466C70.3508 65.1471 70.2708 65.1297 70.1977 65.0956C70.1169 65.0558 70.0439 65.0023 69.9819 64.9375L70.0769 65.7674C70.1345 65.7865 70.1932 65.802 70.2527 65.8141C70.3131 65.8261 70.3745 65.8322 70.4361 65.8322C70.9251 65.8322 71.2944 65.5531 71.5439 64.9948C71.7935 64.4366 71.9183 63.4528 71.9183 62.0434V61.2495H73.3907V65.0065C73.3923 65.156 73.3633 65.3044 73.3055 65.4427C73.2486 65.5582 73.1615 65.6568 73.0531 65.7282H74.4695C74.3575 65.6574 74.2664 65.5589 74.2052 65.4427C74.1464 65.3049 74.1213 65.1555 74.1318 65.0065ZM65.4772 61.2495H67.0036L67.0015 65.1508H64.639C64.9353 64.6038 65.1496 64.0176 65.2755 63.4103C65.4183 62.6988 65.4859 61.9747 65.4772 61.2495ZM68.091 60.6722H64.3553V60.6764C64.5075 60.7582 64.6303 60.8842 64.707 61.0373C64.7968 61.2469 64.8395 61.4732 64.8321 61.7006C64.8376 62.3271 64.7612 62.9516 64.6045 63.5589C64.4566 64.1215 64.2215 64.6585 63.9076 65.1508H63.3068V66.8733L63.7469 67.0389C63.7178 66.7179 63.7628 66.3947 63.8785 66.0933C63.9864 65.8439 64.1633 65.7186 64.4125 65.7186H67.3445C67.5883 65.7186 67.763 65.8439 67.8709 66.0933C67.9868 66.3947 68.0343 66.7175 68.0101 67.0389L68.4502 66.8733V65.1413H67.7533V61.3885C67.7481 61.2432 67.7746 61.0985 67.831 60.964C67.8904 60.8461 67.98 60.7455 68.091 60.6722ZM57.8161 60.6722H54.9704L54.9736 60.6764C55.0828 60.7528 55.1698 60.856 55.226 60.9757C55.2826 61.1103 55.3116 61.2546 55.3113 61.4002V65.0086C55.3172 65.1571 55.2895 65.3049 55.2304 65.4416C55.1715 65.558 55.0831 65.6574 54.9736 65.7303H58.1678L58.541 64.7125C58.3566 64.8782 58.1347 64.9982 57.8938 65.0627C57.6045 65.1323 57.3069 65.1627 57.0092 65.153C56.8603 65.153 56.7007 65.1498 56.5367 65.1423C56.3727 65.1349 56.212 65.1211 56.0556 65.102V63.2904H56.8183C56.9278 63.2881 57.037 63.3027 57.1419 63.3339C57.2303 63.3633 57.3105 63.4128 57.376 63.4782V62.6886C57.3327 62.6983 57.2887 62.7043 57.2444 62.7067H57.1117H56.0556V61.2633L57.0459 61.2421C57.1997 61.2385 57.3532 61.2578 57.5011 61.2994C57.6227 61.3379 57.7315 61.4079 57.8161 61.5021V60.6722ZM48.4419 61.7038C48.8079 61.3436 49.2872 61.1607 49.8798 61.1551L49.8831 61.1593C50.1481 61.1535 50.4111 61.2053 50.6534 61.3112C50.8956 61.4171 51.1111 61.5743 51.2843 61.7717C51.6511 62.1778 51.8345 62.6939 51.8345 63.3201C51.8428 63.575 51.798 63.829 51.7028 64.0662C51.6076 64.3035 51.4641 64.5191 51.2811 64.6998C50.9115 65.0606 50.4332 65.241 49.8464 65.241C49.5797 65.249 49.3144 65.1988 49.0698 65.094C48.8251 64.9892 48.607 64.8325 48.4311 64.635C48.0665 64.231 47.8867 63.7138 47.8917 63.0834C47.8829 62.8287 47.9272 62.5749 48.0218 62.3376C48.1164 62.1003 48.2593 61.8846 48.4419 61.7038ZM51.8787 61.293C51.343 60.807 50.6716 60.5639 49.8647 60.5639L49.868 60.5682C48.9884 60.5689 48.2966 60.8264 47.7925 61.3408C47.3034 61.8374 47.0346 62.5046 47.0449 63.1959C47.0456 63.9855 47.3121 64.6223 47.8443 65.1063C48.3764 65.5902 49.0489 65.8322 49.8615 65.8322C50.7346 65.8315 51.4228 65.5729 51.9262 65.0564C52.1708 64.8112 52.3635 64.5207 52.4931 64.2017C52.6227 63.8827 52.6867 63.5415 52.6813 63.1981C52.682 62.4141 52.4145 61.7791 51.8787 61.293ZM43.6771 62.6685H40.853V61.3981C40.846 61.2486 40.8721 61.0994 40.9296 60.9608C40.9912 60.8462 41.081 60.7484 41.1906 60.6764H39.7667C39.8733 60.7506 39.9611 60.8479 40.0234 60.9608C40.0842 61.0986 40.1119 61.2482 40.1043 61.3981V65.0065C40.1123 65.1585 40.0846 65.3103 40.0234 65.4501C39.9623 65.5621 39.8741 65.6575 39.7667 65.7282H41.1906C41.0802 65.6598 40.9901 65.5639 40.9296 65.4501C40.8716 65.3095 40.8455 65.1581 40.853 65.0065V63.2458H43.6771V65.0033C43.6851 65.1553 43.6574 65.3071 43.5962 65.4469C43.535 65.5589 43.4469 65.6544 43.3395 65.725H44.7623C44.6522 65.6566 44.5625 65.5606 44.5023 65.4469C44.4435 65.3065 44.4169 65.155 44.4247 65.0033V61.3949C44.4174 61.2453 44.4439 61.096 44.5023 60.9577C44.5635 60.843 44.6529 60.7452 44.7623 60.6732H43.3395C43.4461 60.7474 43.5339 60.8448 43.5962 60.9577C43.6569 61.0954 43.6846 61.245 43.6771 61.3949V62.6685ZM36.3417 62.6685H33.5176V61.3981C33.5106 61.2486 33.5367 61.0994 33.5942 60.9608C33.6558 60.8462 33.7456 60.7484 33.8552 60.6764H32.4313C32.5379 60.7506 32.6257 60.8479 32.688 60.9608C32.7488 61.0986 32.7765 61.2482 32.7689 61.3981V65.0065C32.7769 65.1585 32.7492 65.3103 32.688 65.4501C32.6269 65.5621 32.5387 65.6575 32.4313 65.7282H33.8552C33.7448 65.6598 33.6547 65.5639 33.5942 65.4501C33.5363 65.3095 33.5101 65.1581 33.5176 65.0065V63.2458H36.3417V65.0033C36.3497 65.1553 36.322 65.3071 36.2608 65.4469C36.1996 65.5589 36.1115 65.6544 36.0041 65.725H37.4269C37.3168 65.6566 37.2271 65.5606 37.167 65.4469C37.1081 65.3065 37.0816 65.155 37.0893 65.0033V61.3949C37.082 61.2453 37.1085 61.096 37.167 60.9577C37.2282 60.843 37.3175 60.7452 37.4269 60.6732H36.0041C36.1107 60.7474 36.1985 60.8448 36.2608 60.9577C36.3215 61.0954 36.3492 61.245 36.3417 61.3949V62.6685ZM27.0721 63.3243L27.8693 61.3334L28.673 63.3243H27.0721ZM28.385 60.6764H27.1779C27.2206 60.6945 27.2592 60.7208 27.2915 60.7538C27.3237 60.7868 27.3489 60.8258 27.3656 60.8685C27.3966 60.9657 27.39 61.0708 27.3472 61.1636L25.8758 64.8155C25.7979 65.0225 25.6954 65.2199 25.5705 65.4034C25.4746 65.535 25.3533 65.6468 25.2135 65.7324H26.5986C26.483 65.6596 26.3965 65.5498 26.3537 65.4215C26.3226 65.2598 26.3469 65.0926 26.4227 64.946L26.8834 63.8125H28.8693L29.4238 65.1689C29.4755 65.2777 29.4832 65.4017 29.4454 65.5159C29.3959 65.6149 29.3092 65.691 29.2037 65.7282H30.7744C30.6399 65.6625 30.5197 65.5717 30.4205 65.4607C30.3036 65.3179 30.2117 65.1568 30.1487 64.9842L28.385 60.6764ZM20.0787 65.7282H21.6191C21.4722 65.669 21.3498 65.5628 21.2718 65.4268C21.1894 65.2622 21.1523 65.0792 21.1639 64.8961V61.2877C21.261 61.2686 21.3635 61.2527 21.4681 61.241C21.4823 61.2394 21.4964 61.2378 21.5106 61.2362C21.601 61.2259 21.6913 61.2156 21.7799 61.2156C22.1222 61.2156 22.3897 61.2997 22.5824 61.4681C22.6798 61.5558 22.7569 61.663 22.8083 61.7827C22.8596 61.9023 22.8842 62.0314 22.8802 62.1612C22.886 62.3283 22.8518 62.4943 22.7804 62.646C22.709 62.7978 22.6024 62.9308 22.4692 63.0346C22.1721 63.251 21.8119 63.3671 21.4422 63.3657C21.5477 63.3994 21.656 63.4235 21.7658 63.4379C21.8655 63.4522 21.9661 63.4596 22.0668 63.4602C22.5652 63.4644 22.9661 63.3286 23.2696 63.0527C23.4167 62.9223 23.5334 62.7623 23.612 62.5836C23.6906 62.4048 23.729 62.2115 23.7248 62.0168C23.7336 61.8319 23.6984 61.6476 23.622 61.4784C23.5456 61.3093 23.4301 61.16 23.2847 61.0426C22.9906 60.8062 22.5285 60.686 21.8985 60.6817H20.0787C20.1866 60.7568 20.2737 60.8571 20.3322 60.9736C20.3881 61.1084 20.4166 61.2526 20.4163 61.3981V65.0065C20.4243 65.1585 20.3966 65.3103 20.3354 65.4501C20.2743 65.5621 20.1861 65.6575 20.0787 65.7282ZM15.0982 65.1285V63.1949L15.4682 63.1694C15.5685 63.1588 15.6527 63.1588 15.7217 63.1588C16.2028 63.1581 16.5512 63.2423 16.767 63.4114C16.8739 63.4931 16.9598 63.5984 17.0177 63.7188C17.0756 63.8391 17.1039 63.9713 17.1003 64.1044C17.096 64.4645 16.9838 64.7362 16.7637 64.9195C16.5437 65.1027 16.2427 65.1943 15.8608 65.1943C15.7389 65.1943 15.6127 65.189 15.4833 65.1795C15.354 65.17 15.2254 65.1529 15.0982 65.1285ZM17.1413 60.6764H14.013C14.1208 60.7521 14.2076 60.8532 14.2654 60.9704C14.3222 61.1049 14.3509 61.2493 14.3495 61.3949V65.0033C14.352 65.1528 14.3233 65.3013 14.2654 65.4395C14.2082 65.5548 14.1211 65.6533 14.013 65.725H15.794C16.5189 65.725 17.0582 65.5807 17.4121 65.292C17.5871 65.1496 17.7262 64.9692 17.8185 64.7649C17.9107 64.5607 17.9537 64.3383 17.9439 64.115C17.9439 63.6424 17.7788 63.2752 17.4488 63.0134C17.1187 62.7516 16.6555 62.6207 16.0593 62.6207C15.9709 62.6207 15.8436 62.625 15.6775 62.6345L15.0982 62.6706V61.2495H16.6354C16.7959 61.2454 16.956 61.268 17.1089 61.3164C17.222 61.3557 17.3237 61.4212 17.4056 61.5074V60.6584C17.3624 60.6685 17.3183 60.6745 17.274 60.6764H17.1413ZM8.31833 60.6838L8.21046 61.5923C8.44828 61.449 8.70487 61.3383 8.97312 61.2633C9.22628 61.1934 9.48794 61.1577 9.75089 61.1572C10.0019 61.1426 10.2507 61.2101 10.4585 61.3493C10.5418 61.4119 10.6084 61.4935 10.6526 61.587C10.6967 61.6806 10.7172 61.7833 10.712 61.8863C10.713 62 10.6869 62.1123 10.636 62.2144C10.5851 62.3165 10.5106 62.4054 10.4186 62.4743C10.228 62.6207 9.92708 62.6915 9.51572 62.6865C9.43145 62.6873 9.3472 62.6838 9.2633 62.6759C9.19642 62.6685 9.09825 62.6525 8.98067 62.6292V63.3838C9.07983 63.338 9.18463 63.3052 9.29243 63.2861C9.42919 63.2627 9.56785 63.2517 9.70666 63.2532C10.0317 63.2368 10.3532 63.3272 10.6204 63.5101C10.7312 63.5928 10.8201 63.7006 10.8795 63.8244C10.9388 63.9483 10.9669 64.0844 10.9612 64.2211C10.9635 64.3688 10.928 64.5147 10.8581 64.6454C10.7881 64.7761 10.686 64.8875 10.561 64.9693C10.2964 65.1469 9.93427 65.2357 9.47473 65.2357C9.18219 65.2383 8.89195 65.1846 8.62038 65.0776C8.33318 64.9556 8.07574 64.7747 7.86526 64.547L8.06375 65.5286C8.27463 65.6394 8.5006 65.7199 8.73472 65.7674C8.98987 65.8131 9.24885 65.8348 9.50817 65.8322C10.2324 65.8315 10.7962 65.6836 11.1996 65.3886C11.3952 65.2472 11.5526 65.0607 11.6577 64.8455C11.7629 64.6302 11.8126 64.3929 11.8026 64.1543C11.8128 63.8258 11.6902 63.5068 11.4618 63.267C11.3455 63.149 11.2056 63.056 11.0509 62.9939C10.8963 62.9318 10.7302 62.902 10.5632 62.9062V62.885C10.8386 62.8416 11.092 62.7108 11.2849 62.5125C11.4671 62.3146 11.5635 62.0544 11.5535 61.7876C11.5599 61.6137 11.5224 61.4409 11.4442 61.2847C11.3661 61.1286 11.2498 60.994 11.1058 60.8929C10.8073 60.6764 10.3525 60.5682 9.74118 60.5682C9.49932 60.5664 9.25767 60.5831 9.01842 60.618C8.78664 60.654 8.55285 60.676 8.31833 60.6838ZM4.54276 60.9577L1.93113 64.7879V61.396C1.92412 61.2465 1.95026 61.0973 2.00773 60.9587C2.06939 60.8441 2.15911 60.7463 2.26878 60.6743H0.845927C0.95227 60.7488 1.04005 60.846 1.10266 60.9587C1.16245 61.0967 1.18974 61.2462 1.18249 61.396V65.0044C1.1902 65.1563 1.16291 65.3079 1.10266 65.448C1.04117 65.5597 0.953081 65.6551 0.845927 65.7261H1.88691C1.92983 65.6937 1.97022 65.6582 2.00773 65.6199C2.05705 65.5654 2.10247 65.5076 2.14365 65.4469L4.75526 61.6167V65.0065C4.76324 65.1585 4.73556 65.3103 4.67436 65.4501C4.61319 65.5621 4.52503 65.6575 4.41762 65.7282H5.84048C5.73059 65.6595 5.64095 65.5636 5.5805 65.4501C5.52207 65.3096 5.49591 65.1581 5.5039 65.0065V61.3981C5.49633 61.2486 5.5225 61.0993 5.5805 60.9608C5.64208 60.8465 5.73137 60.7488 5.84048 60.6764H4.79949C4.75355 60.7114 4.71062 60.7501 4.67113 60.7921C4.62377 60.8437 4.58083 60.8991 4.54276 60.9577ZM136.566 42.3893C136.418 42.3317 136.26 42.3049 136.101 42.3107L134.015 42.3468C134.514 42.58 134.933 42.9533 135.217 43.4198L138.524 48.4355V51.8083C138.524 52.2498 138.524 52.8812 137.785 53.3864H140.898C140.16 52.8812 140.16 52.2498 140.16 51.8083V48.4461L144.299 42.3373H141.524C141.795 42.4795 142.069 42.7788 142.069 43.1417C142.055 43.3702 141.977 43.5904 141.844 43.7785L139.63 47.1566L136.566 42.3893ZM130.343 53.3917C129.605 52.8865 129.605 52.2551 129.605 51.8136V43.6055L131.402 43.5896C131.802 43.5896 132.379 43.5896 132.684 44.1266L133.246 42.2789C132.922 42.3175 132.595 42.3388 132.268 42.3426H126.059C125.715 42.3541 125.371 42.3328 125.032 42.2789L124.39 44.2529C124.606 44.0349 124.867 43.8633 125.154 43.7492C125.441 43.635 125.749 43.5807 126.059 43.5896L127.968 43.6055V51.8136C127.968 52.2551 127.968 52.8865 127.229 53.3917H130.343ZM119.931 43.9207C119.931 43.5259 119.962 42.8318 120.749 42.3426H117.551C118.288 42.8478 118.288 43.4792 118.288 43.9207V51.8178C118.288 52.2593 118.288 52.8908 117.551 53.396H124.455L125.353 51.1025C124.343 51.9388 122.818 52.1288 121.775 52.1288C121.158 52.1125 120.543 52.065 119.931 51.9866V43.9207ZM111.925 48.1351H108.444L110.177 43.7838L111.925 48.1351ZM115.166 51.7669L111.3 42.3426L108.666 42.3341C109.323 42.6376 109.099 43.2383 109.035 43.3954L105.826 51.3827C105.522 52.1404 105.2 52.8515 104.366 53.3875H107.398C106.645 52.8664 106.789 52.22 107.013 51.6671L108.024 49.189H112.338L113.558 52.1606C113.703 52.5236 113.832 53.0606 113.077 53.3917H116.529C115.743 52.9821 115.423 52.3814 115.166 51.7669ZM102.346 44.1627V42.3426H96.1218C96.8597 42.8478 96.8597 43.51 96.8597 43.9207V51.8093C96.8597 52.22 96.8597 52.8823 96.1218 53.3875H103.117L103.936 51.1587C103.23 51.7743 102.346 52.1224 100.582 52.1224C100.262 52.1224 99.4756 52.1107 98.4972 52.0163V48.0619H100.165C100.727 48.0619 101.08 48.1723 101.385 48.4726V46.7523C101.194 46.7844 101.001 46.8 100.807 46.799H98.4972V43.6427L100.662 43.5949C101.609 43.579 102.043 43.8157 102.346 44.1627ZM87.0799 42.3106L87.0766 42.3107L87.0735 42.3108C86.368 42.3267 85.6635 42.3426 84.958 42.3426C85.6959 42.8478 85.6959 43.4792 85.6959 43.9207V51.8114C85.6959 52.2529 85.6959 52.8844 84.958 53.3896H88.0658C87.3291 52.8844 87.329 52.2529 87.329 51.8114V43.5557C87.682 43.4717 88.045 43.436 88.4078 43.4495C90.3819 43.4495 90.6548 44.5862 90.6548 45.2962C90.6548 46.8732 88.9536 47.5249 87.7994 47.631C88.8091 49.4936 91.3128 53.4862 93.1575 53.4862C93.3344 53.4862 93.768 53.4702 94.891 53.3917C93.302 52.7454 90.9752 49.8873 89.7238 47.9462C91.4574 47.6618 92.5005 46.4466 92.5005 45.1518C92.5005 44.2837 92.1305 42.2789 88.4725 42.2789C88.0087 42.2789 87.5448 42.2948 87.0799 42.3106ZM75.189 43.2733C75.847 43.2733 76.8092 43.3848 77.9333 44.2996L77.9419 42.453C77.1005 42.2148 76.2284 42.0979 75.3529 42.1059C72.0089 42.1059 71.1459 43.7 71.1459 45.0574C71.1459 46.7937 72.5105 47.4888 74.3389 48.3092C74.4478 48.3577 74.5559 48.4052 74.6627 48.4521C75.9475 49.0165 77.0509 49.5011 77.0509 50.6769C77.0509 51.735 76.0239 52.3654 74.4349 52.3654C72.5417 52.3654 71.4026 51.5769 70.8093 51.0717L71.2743 53.155C72.2613 53.4822 73.2975 53.6422 74.3389 53.6284C76.6819 53.6284 78.8481 52.6148 78.8481 50.2322C78.8481 48.5267 77.7078 47.943 75.8146 47.1067C73.874 46.2545 72.9916 45.812 72.9916 44.8653C72.9916 44.2688 73.3767 43.2733 75.189 43.2733ZM65.516 43.2733C66.1741 43.2733 67.1363 43.3848 68.2603 44.2996L68.269 42.453C67.4275 42.2149 66.5555 42.098 65.68 42.1059C62.3359 42.1059 61.473 43.7 61.473 45.0574C61.473 46.7937 62.8321 47.4888 64.666 48.3092C64.7751 48.3578 64.8835 48.4055 64.9906 48.4526C66.2741 49.0167 67.3769 49.5015 67.3769 50.6769C67.3769 51.735 66.3499 52.3654 64.762 52.3654C62.8688 52.3654 61.7297 51.5769 61.1364 51.0717L61.6013 53.155C62.5883 53.4823 63.6246 53.6424 64.666 53.6284C67.0079 53.6284 69.174 52.6148 69.174 50.2322C69.174 48.5267 68.0349 47.943 66.1417 47.1067C64.201 46.2545 63.3176 45.812 63.3176 44.8653C63.3176 44.2688 63.7027 43.2733 65.516 43.2733ZM58.5701 44.1627V42.3426H52.3415C53.0794 42.8478 53.0794 43.51 53.0794 43.9207V51.8093C53.0794 52.22 53.0794 52.8823 52.3415 53.3875H59.336L60.1537 51.1587C59.4482 51.7743 58.5658 52.1224 56.801 52.1224C56.4795 52.1224 55.6931 52.1107 54.7147 52.0163V48.0619H56.3889C56.9499 48.0619 57.3026 48.1723 57.6068 48.4726V46.7523C57.4162 46.7845 57.2231 46.8001 57.0297 46.799H54.719V43.6427L56.8851 43.5949C57.8323 43.579 58.2648 43.8157 58.5701 44.1627ZM42.6696 42.7533C42.5732 42.6262 42.4924 42.4884 42.429 42.3426H40.0375C40.7753 42.8478 40.7753 43.4792 40.7753 43.9207V51.8146C40.7753 52.2561 40.7753 52.8876 40.0375 53.3928H42.7656C42.0277 52.8876 42.0277 52.2561 42.0277 51.8146V44.6329L47.9802 51.9558C47.9987 51.9787 48.0172 52.0017 48.0359 52.0248C48.5832 52.7035 49.2112 53.4822 50.4828 53.8332V43.9207C50.4828 43.4792 50.4828 42.8478 51.2218 42.3426H48.4937C49.2315 42.8478 49.2315 43.4792 49.2315 43.9207V50.8032L42.6696 42.7533ZM35.5251 43.9207V46.6939L29.3526 46.6992V43.9207C29.3526 43.4039 29.3688 42.8478 30.0915 42.3426H26.9783C27.7 42.8478 27.7161 43.3996 27.7161 43.9207V51.8136C27.7161 52.3315 27.7 52.8865 26.9783 53.3928H30.0915C29.3688 52.8865 29.3526 52.3347 29.3526 51.8136V47.9621H35.5294V51.8136C35.5294 52.3315 35.5143 52.8865 34.7927 53.3928H37.9005C37.1777 52.8865 37.1626 52.3347 37.1626 51.8136V43.9207C37.1626 43.4039 37.1788 42.8478 37.9005 42.3426H34.7883C35.51 42.8478 35.5251 43.3996 35.5251 43.9207ZM21.7443 43.4421C22.8827 43.4549 23.9905 43.8072 24.9211 44.4524L24.9244 42.5315C24.6219 42.4921 24.3221 42.4344 24.0269 42.3585C23.3431 42.1904 22.6411 42.1049 21.9363 42.1038C17.877 42.1038 15.6958 44.9099 15.6958 47.9409C15.6958 50.3872 17.1877 53.6231 22.001 53.6231C23.056 53.6231 23.8586 53.5286 24.8057 53.2283L25.8963 51.1142C25.4152 51.5079 24.3397 52.2816 22.1261 52.2816C18.8856 52.2816 17.5372 49.8194 17.5372 47.5153C17.5372 44.8154 19.6418 43.4421 21.7443 43.4421ZM13.9019 43.9207C13.9019 43.4792 13.9019 42.8478 14.6397 42.3426H11.5276C12.2643 42.8478 12.2643 43.4792 12.2643 43.9207V51.8136C12.2643 52.2551 12.2643 52.8865 11.5276 53.3917H14.6397C13.9019 52.8865 13.9019 52.2551 13.9019 51.8136V43.9207ZM2.82 42.3106L2.81678 42.3107C2.11129 42.3267 1.40471 42.3426 0.699219 42.3426C1.43707 42.8478 1.43708 43.4792 1.43708 43.9207V51.8114C1.43708 52.2529 1.43707 52.8844 0.699219 53.3896H3.80814C3.07028 52.8844 3.07028 52.2529 3.07028 51.8114V43.5557C3.42321 43.4718 3.78619 43.4361 4.14901 43.4495C6.12202 43.4495 6.39495 44.5862 6.39495 45.2962C6.39495 46.8732 4.69378 47.5249 3.53953 47.631C4.5503 49.4936 7.05298 53.4862 8.89761 53.4862C9.07453 53.4862 9.5071 53.4702 10.6311 53.3917C9.04217 52.7454 6.7164 49.8873 5.46399 47.9462C7.19752 47.6618 8.23958 46.4466 8.23958 45.1518C8.23958 44.2837 7.87173 42.2789 4.21266 42.2789C3.7488 42.2789 3.28494 42.2948 2.82 42.3106Z" fill="url(#paint0_linear_3244_13918)"/>
<defs>
<linearGradient id="paint0_linear_3244_13918" x1="-56.6377" y1="-26.3751" x2="236.237" y2="107.875" gradientUnits="userSpaceOnUse">
<stop stop-color="#DABE83"/>
<stop offset="1" stop-color="#C9792F"/>
</linearGradient>
</defs>
</svg>
