<svg width="41" height="40" viewBox="0 0 41 40" fill="none" xmlns="http://www.w3.org/2000/svg">
<path d="M29.3603 25.8585C31.7813 22.5549 32.8656 18.459 32.3963 14.3902C31.9271 10.3214 29.9389 6.57988 26.8294 3.91408C23.72 1.24829 19.7186 -0.145149 15.6259 0.0125497C11.5332 0.170249 7.65099 1.86745 4.7559 4.76462C1.86081 7.66178 0.166388 11.5452 0.0116175 15.6381C-0.143153 19.7309 1.25315 23.7312 3.92117 26.8387C6.58919 29.9463 10.3322 31.9318 14.4013 32.3982C18.4704 32.8645 22.5655 31.7772 25.8674 29.3539H25.8649C25.9399 29.4539 26.0199 29.5489 26.1099 29.6414L35.7359 39.2674C36.2047 39.7366 36.8407 40.0003 37.504 40.0005C38.1672 40.0007 38.8034 39.7375 39.2725 39.2687C39.7417 38.7998 40.0054 38.1638 40.0056 37.5006C40.0059 36.8374 39.7426 36.2012 39.2738 35.732L29.6478 26.106C29.5584 26.0156 29.4623 25.932 29.3603 25.856V25.8585ZM30.0053 16.2475C30.0053 18.0534 29.6496 19.8416 28.9586 21.51C28.2675 23.1784 27.2546 24.6943 25.9776 25.9713C24.7007 27.2482 23.1848 28.2611 21.5164 28.9522C19.848 29.6433 18.0598 29.9989 16.2539 29.9989C14.4481 29.9989 12.6599 29.6433 10.9915 28.9522C9.32308 28.2611 7.80714 27.2482 6.5302 25.9713C5.25326 24.6943 4.24034 23.1784 3.54927 21.51C2.85819 19.8416 2.5025 18.0534 2.5025 16.2475C2.5025 12.6004 3.95131 9.1027 6.5302 6.52381C9.10909 3.94492 12.6068 2.49611 16.2539 2.49611C19.901 2.49611 23.3987 3.94492 25.9776 6.52381C28.5565 9.1027 30.0053 12.6004 30.0053 16.2475V16.2475Z" fill="#DABE83"/>
</svg>
