<svg width="100" height="100" viewBox="0 0 100 100" fill="none" xmlns="http://www.w3.org/2000/svg">
<g opacity="0.24">
<rect width="100" height="100" fill="url(#paint0_linear_1052_1158)"/>
<path d="M36.418 50.6634C36.418 49.6612 37.2215 48.9771 38.168 48.9134L59.5973 48.9148L48.4837 37.8465C47.7988 37.1646 47.7964 36.0566 48.4783 35.3717C49.0983 34.7491 50.0704 34.6905 50.7566 35.1973L50.9532 35.3663L65.0699 49.4223C65.1602 49.5122 65.2386 49.6095 65.3051 49.7123C65.3239 49.7432 65.343 49.7748 65.3612 49.8071C65.3779 49.8348 65.393 49.8635 65.4072 49.8925C65.4269 49.9348 65.4462 49.9784 65.4638 50.023C65.478 50.0573 65.4899 50.0907 65.5007 50.1244C65.5136 50.1661 65.5262 50.2106 65.5369 50.2558C65.5449 50.2873 65.5513 50.3177 65.5568 50.3482C65.5646 50.3935 65.5712 50.4404 65.576 50.4879C65.58 50.5241 65.5825 50.56 65.5838 50.5959C65.5842 50.6177 65.5846 50.6405 65.5846 50.6634L65.5838 50.7312C65.5824 50.7655 65.5801 50.7998 65.5767 50.8341L65.5846 50.6634C65.5846 50.7738 65.5744 50.8819 65.5548 50.9866C65.5503 51.0116 65.5449 51.0373 65.5389 51.0629C65.5265 51.1156 65.5121 51.1663 65.4956 51.216C65.4875 51.2408 65.478 51.2672 65.4679 51.2934C65.4474 51.346 65.4252 51.3962 65.4008 51.4451C65.3894 51.4681 65.3767 51.4922 65.3634 51.516C65.3415 51.5549 65.319 51.5918 65.2951 51.6278C65.2783 51.6533 65.2597 51.6798 65.2403 51.7059L65.2251 51.7261C65.178 51.7877 65.1268 51.8461 65.0721 51.9008L65.07 51.9024L50.9533 65.9608C50.2685 66.6428 49.1604 66.6405 48.4784 65.9556C47.8584 65.3331 47.804 64.3607 48.3137 63.6767L48.4836 63.4808L59.5926 52.4148L38.1647 52.4134C37.1982 52.4134 36.418 51.6299 36.418 50.6634Z" fill="#292929"/>
</g>
<defs>
<linearGradient id="paint0_linear_1052_1158" x1="-39.6527" y1="-41.3694" x2="195.147" y2="7.81475" gradientUnits="userSpaceOnUse">
<stop stop-color="#DABE83"/>
<stop offset="1" stop-color="#C9792F"/>
</linearGradient>
</defs>
</svg>
