<svg xmlns="http://www.w3.org/2000/svg" width="742.6349200342188" height="100.13227418717076" fill="none"><rect id="backgroundrect" width="100%" height="100%" x="0" y="0" fill="none" stroke="none"/>




<defs>
<linearGradient id="paint0_linear_3262_25136" x1="-0.4743444621562958" y1="-1.2244011163711548" x2="2.160259246826172" y2="-0.6780994534492493">
<stop stop-color="#DABE83"/>
<stop offset="1" stop-color="#C9792F"/>
</linearGradient>
<clipPath id="clip0_3262_25136">
<path d="M146 64.5C146 63.3954 146.895 62.5 148 62.5H624C625.105 62.5 626 63.3954 626 64.5C626 65.6046 625.105 66.5 624 66.5H148C146.895 66.5 146 65.6046 146 64.5Z" fill="white" id="svg_1"/>
</clipPath>
</defs>
<g class="currentLayer" style=""><title>Layer 1</title><path d="M92.48 99.48C89.856 99.48 87.744 98.76 86.144 97.32C84.576 95.88 83.44 93.832 82.736 91.176C82.032 88.52 81.68 85.384 81.68 81.768C81.68 78.184 82.016 75.08 82.688 72.456C83.392 69.832 84.544 67.816 86.144 66.408C87.744 64.968 89.872 64.248 92.528 64.248C95.056 64.248 97.104 64.968 98.672 66.408C100.24 67.816 101.392 69.832 102.128 72.456C102.864 75.08 103.232 78.2 103.232 81.816C103.232 85.464 102.848 88.6 102.08 91.224C101.344 93.848 100.192 95.88 98.624 97.32C97.056 98.76 95.008 99.48 92.48 99.48ZM92.48 99C93.344 99 94.064 98.728 94.64 98.184C95.248 97.608 95.728 96.664 96.08 95.352C96.464 94.04 96.736 92.28 96.896 90.072C97.056 87.864 97.136 85.112 97.136 81.816C97.136 78.52 97.056 75.784 96.896 73.608C96.736 71.4 96.48 69.656 96.128 68.376C95.776 67.064 95.296 66.136 94.688 65.592C94.112 65.016 93.392 64.728 92.528 64.728C91.632 64.728 90.88 65.016 90.272 65.592C89.664 66.136 89.168 67.064 88.784 68.376C88.432 69.656 88.176 71.4 88.016 73.608C87.856 75.784 87.776 78.52 87.776 81.816C87.776 85.112 87.856 87.864 88.016 90.072C88.176 92.28 88.432 94.04 88.784 95.352C89.168 96.664 89.664 97.608 90.272 98.184C90.88 98.728 91.616 99 92.48 99ZM109.115 99V98.52H112.571C113.243 98.52 113.771 98.424 114.155 98.232C114.571 98.008 114.875 97.656 115.067 97.176C115.259 96.696 115.355 96.04 115.355 95.208V68.088C114.363 69.496 113.531 70.616 112.859 71.448C112.187 72.248 111.595 72.824 111.083 73.176C110.571 73.528 110.059 73.704 109.547 73.704C108.811 73.704 108.219 73.48 107.771 73.032C107.323 72.552 107.099 71.864 107.099 70.968C108.475 70.904 109.627 70.744 110.555 70.488C111.515 70.232 112.411 69.8 113.243 69.192C114.107 68.584 115.067 67.704 116.123 66.552L117.995 64.536H121.211V95.208C121.211 95.976 121.291 96.6 121.451 97.08C121.611 97.56 121.899 97.928 122.315 98.184C122.731 98.408 123.291 98.52 123.995 98.52H127.019V99H109.115Z" fill="url(#paint0_linear_3262_25136)" id="svg_2" class=""/><g clip-path="url(#clip0_3262_25136)" id="svg_3" class="">
<path d="M146 64.5C146 63.3954 146.895 62.5 148 62.5H624C625.105 62.5 626 63.3954 626 64.5C626 65.6046 625.105 66.5 624 66.5H148C146.895 66.5 146 65.6046 146 64.5Z" fill="#DABE83" fill-opacity="0.16" id="svg_4"/>
</g><path opacity="0.4" d="M654.48 67.48C651.856 67.48 649.744 66.76 648.144 65.32C646.576 63.88 645.44 61.832 644.736 59.176C644.032 56.52 643.68 53.384 643.68 49.768C643.68 46.184 644.016 43.08 644.688 40.456C645.392 37.832 646.544 35.816 648.144 34.408C649.744 32.968 651.872 32.248 654.528 32.248C657.056 32.248 659.104 32.968 660.672 34.408C662.24 35.816 663.392 37.832 664.128 40.456C664.864 43.08 665.232 46.2 665.232 49.816C665.232 53.464 664.848 56.6 664.08 59.224C663.344 61.848 662.192 63.88 660.624 65.32C659.056 66.76 657.008 67.48 654.48 67.48ZM654.48 67C655.344 67 656.064 66.728 656.64 66.184C657.248 65.608 657.728 64.664 658.08 63.352C658.464 62.04 658.736 60.28 658.896 58.072C659.056 55.864 659.136 53.112 659.136 49.816C659.136 46.52 659.056 43.784 658.896 41.608C658.736 39.4 658.48 37.656 658.128 36.376C657.776 35.064 657.296 34.136 656.688 33.592C656.112 33.016 655.392 32.728 654.528 32.728C653.632 32.728 652.88 33.016 652.272 33.592C651.664 34.136 651.168 35.064 650.784 36.376C650.432 37.656 650.176 39.4 650.016 41.608C649.856 43.784 649.776 46.52 649.776 49.816C649.776 53.112 649.856 55.864 650.016 58.072C650.176 60.28 650.432 62.04 650.784 63.352C651.168 64.664 651.664 65.608 652.272 66.184C652.88 66.728 653.616 67 654.48 67ZM668.715 67V63.112L675.195 56.056C676.667 54.424 677.867 52.952 678.795 51.64C679.755 50.328 680.491 49.08 681.003 47.896C681.547 46.68 681.915 45.48 682.107 44.296C682.331 43.08 682.443 41.784 682.443 40.408C682.443 38.584 682.299 37.112 682.011 35.992C681.755 34.872 681.323 34.056 680.715 33.544C680.107 33 679.307 32.728 678.315 32.728C677.227 32.728 676.363 33.048 675.723 33.688C675.115 34.328 674.683 35.368 674.427 36.808C674.171 38.248 674.043 40.184 674.043 42.616C673.115 42.616 672.267 42.504 671.499 42.28C670.763 42.024 670.171 41.608 669.723 41.032C669.307 40.456 669.099 39.688 669.099 38.728C669.099 37.608 669.435 36.552 670.107 35.56C670.811 34.568 671.867 33.768 673.275 33.16C674.683 32.552 676.427 32.248 678.507 32.248C680.651 32.248 682.459 32.584 683.931 33.256C685.403 33.928 686.507 34.872 687.243 36.088C688.011 37.304 688.395 38.744 688.395 40.408C688.395 41.464 688.219 42.504 687.867 43.528C687.515 44.552 686.891 45.672 685.995 46.888C685.099 48.104 683.851 49.512 682.251 51.112C680.651 52.712 678.603 54.632 676.107 56.872L669.915 62.488H684.843C686.251 62.488 687.243 62.248 687.819 61.768C688.427 61.288 688.779 60.392 688.875 59.08L688.971 57.736H689.451L689.163 67H668.715Z" fill="#DABE83" id="svg_5" class=""/><path opacity="0.4" d="M713.36 38.36C711.392 38.36 709.808 37.82 708.608 36.74C707.432 35.66 706.58 34.124 706.052 32.132C705.524 30.14 705.26 27.788 705.26 25.076C705.26 22.388 705.512 20.06 706.016 18.092C706.544 16.124 707.408 14.612 708.608 13.556C709.808 12.476 711.404 11.936 713.396 11.936C715.292 11.936 716.828 12.476 718.004 13.556C719.18 14.612 720.044 16.124 720.596 18.092C721.148 20.06 721.424 22.4 721.424 25.112C721.424 27.848 721.136 30.2 720.56 32.168C720.008 34.136 719.144 35.66 717.968 36.74C716.792 37.82 715.256 38.36 713.36 38.36ZM713.36 38C714.008 38 714.548 37.796 714.98 37.388C715.436 36.956 715.796 36.248 716.06 35.264C716.348 34.28 716.552 32.96 716.672 31.304C716.792 29.648 716.852 27.584 716.852 25.112C716.852 22.64 716.792 20.588 716.672 18.956C716.552 17.3 716.36 15.992 716.096 15.032C715.832 14.048 715.472 13.352 715.016 12.944C714.584 12.512 714.044 12.296 713.396 12.296C712.724 12.296 712.16 12.512 711.704 12.944C711.248 13.352 710.876 14.048 710.588 15.032C710.324 15.992 710.132 17.3 710.012 18.956C709.892 20.588 709.832 22.64 709.832 25.112C709.832 27.584 709.892 29.648 710.012 31.304C710.132 32.96 710.324 34.28 710.588 35.264C710.876 36.248 711.248 36.956 711.704 37.388C712.16 37.796 712.712 38 713.36 38ZM729.076 38V37.64H729.94C730.516 37.64 731.02 37.58 731.452 37.46C731.884 37.316 732.208 37.052 732.424 36.668C732.664 36.284 732.784 35.732 732.784 35.012V31.124H723.172V29.324L732.928 12.296H737.104V29.036H740.776V31.124H737.104V35.012C737.104 35.732 737.212 36.284 737.428 36.668C737.668 37.052 737.992 37.316 738.4 37.46C738.832 37.58 739.324 37.64 739.876 37.64H740.272V38H729.076ZM723.748 29.036H732.784V21.404C732.784 20.756 732.784 20.06 732.784 19.316C732.784 18.572 732.784 17.828 732.784 17.084C732.784 16.316 732.784 15.596 732.784 14.924C732.808 14.228 732.832 13.616 732.856 13.088C732.712 13.352 732.508 13.724 732.244 14.204C731.98 14.66 731.692 15.152 731.38 15.68C731.092 16.208 730.816 16.712 730.552 17.192C730.288 17.672 730.06 18.068 729.868 18.38L723.748 29.036Z" fill="#DABE83" id="svg_6" class=""/></g></svg>