<svg width="100" height="100" viewBox="0 0 100 100" fill="none" xmlns="http://www.w3.org/2000/svg">
<g opacity="0.24">
<path d="M0 0H98C99.1046 0 100 0.89543 100 2V98C100 99.1046 99.1046 100 98 100H0V0Z" fill="url(#paint0_linear_1052_1292)"/>
<path d="M65.5846 50.6638C65.5846 51.6661 64.7811 52.3502 63.8346 52.4138L42.4053 52.4124L53.5189 63.4807C54.2038 64.1626 54.2062 65.2707 53.5243 65.9555C52.9043 66.5782 51.9322 66.6367 51.246 66.1299L51.0494 65.9609L36.9327 51.9049C36.8425 51.815 36.764 51.7177 36.6975 51.615C36.6787 51.584 36.6596 51.5524 36.6414 51.5201C36.6247 51.4925 36.6097 51.4637 36.5954 51.4347C36.5757 51.3924 36.5564 51.3488 36.5388 51.3042C36.5246 51.2699 36.5127 51.2365 36.5019 51.2028C36.489 51.1611 36.4765 51.1166 36.4657 51.0714C36.4577 51.0399 36.4513 51.0095 36.4458 50.979C36.438 50.9337 36.4314 50.8868 36.4267 50.8393C36.4226 50.8031 36.4201 50.7672 36.4188 50.7313C36.4184 50.7095 36.418 50.6867 36.418 50.6638L36.4188 50.5961C36.4202 50.5617 36.4225 50.5274 36.4259 50.4932L36.418 50.6638C36.418 50.5534 36.4282 50.4454 36.4478 50.3406C36.4523 50.3156 36.4577 50.2899 36.4637 50.2643C36.4761 50.2116 36.4905 50.1609 36.507 50.1112C36.5151 50.0865 36.5246 50.0601 36.5347 50.0339C36.5552 49.9812 36.5774 49.931 36.6018 49.8821C36.6132 49.8591 36.6259 49.835 36.6393 49.8112C36.6611 49.7724 36.6836 49.7354 36.7075 49.6994C36.7243 49.6739 36.7429 49.6474 36.7623 49.6213L36.7775 49.6011C36.8246 49.5395 36.8758 49.4812 36.9305 49.4264L36.9326 49.4248L51.0493 35.3664C51.7341 34.6844 52.8422 34.6867 53.5242 35.3716C54.1442 35.9941 54.1986 36.9665 53.6889 37.6505L53.519 37.8464L42.41 48.9124L63.8379 48.9138C64.8044 48.9138 65.5846 49.6973 65.5846 50.6638Z" fill="#292929"/>
</g>
<defs>
<linearGradient id="paint0_linear_1052_1292" x1="-39.6527" y1="-41.3694" x2="195.147" y2="7.81475" gradientUnits="userSpaceOnUse">
<stop stop-color="#DABE83"/>
<stop offset="1" stop-color="#C9792F"/>
</linearGradient>
</defs>
</svg>
