<?xml version="1.0" standalone="no"?>
<!DOCTYPE svg PUBLIC "-//W3C//DTD SVG 20010904//EN"
 "http://www.w3.org/TR/2001/REC-SVG-20010904/DTD/svg10.dtd">
<svg version="1.0" xmlns="http://www.w3.org/2000/svg"
 width="720.000000pt" height="720.000000pt" viewBox="0 0 720.000000 720.000000"
 preserveAspectRatio="xMidYMid meet">
<metadata>
Created by potrace 1.14, written by Peter Selinger 2001-2017
</metadata>
<g transform="translate(0.000000,720.000000) scale(0.100000,-0.100000)"
fill="#000000" stroke="none">
<path d="M1367 6514 c-5 -6 -714 -21 -1092 -25 -137 -1 -254 -4 -258 -6 -4 -3
9 -17 30 -32 190 -140 296 -346 309 -605 6 -109 6 -109 1 -146 -2 -14 0 -36 4
-50 3 -14 3 -34 -1 -45 -4 -11 -4 -34 0 -52 5 -19 3 -36 -3 -42 -8 -8 -7 -11
3 -11 10 0 11 -3 3 -11 -6 -6 -8 -23 -3 -42 4 -18 4 -41 0 -51 -3 -10 -3 -41
0 -68 4 -27 3 -51 -1 -54 -5 -3 -4 -15 1 -28 5 -13 6 -26 3 -30 -3 -3 -5 -36
-4 -73 2 -66 2 -79 0 -105 -1 -19 0 -130 1 -153 1 -11 1 -27 1 -35 -2 -54 0
-114 5 -121 3 -5 -1 -9 -8 -9 -9 0 -10 -3 -2 -8 7 -4 8 -15 4 -27 -4 -11 -4
-31 0 -45 4 -14 4 -33 0 -44 -3 -10 -3 -40 0 -67 4 -31 2 -50 -4 -53 -7 -3 -6
-5 1 -5 9 -1 10 -8 4 -23 -4 -13 -5 -34 -1 -48 4 -14 4 -34 0 -45 -3 -11 -5
-29 -4 -40 4 -30 6 -120 5 -215 -2 -80 1 -165 5 -172 3 -4 -1 -8 -8 -8 -9 0
-10 -3 -2 -8 7 -4 8 -15 4 -27 -4 -11 -4 -31 0 -45 4 -14 4 -33 0 -44 -3 -10
-3 -40 0 -66 3 -26 3 -56 -1 -66 -3 -11 -3 -29 2 -41 6 -16 5 -23 -4 -23 -8 0
-9 -2 -1 -8 7 -4 8 -15 4 -27 -4 -11 -4 -31 0 -45 4 -14 4 -33 0 -44 -3 -10
-3 -41 0 -68 4 -27 3 -51 -1 -54 -5 -3 -4 -15 1 -28 5 -13 6 -26 3 -30 -3 -3
-5 -36 -4 -73 2 -66 2 -79 0 -105 -1 -19 0 -130 1 -153 1 -11 1 -27 1 -35 -2
-54 0 -114 5 -121 3 -5 -1 -9 -8 -9 -9 0 -10 -3 -2 -8 7 -4 8 -15 4 -27 -4
-11 -4 -31 0 -45 4 -14 4 -33 0 -44 -3 -10 -3 -40 0 -67 4 -31 2 -50 -4 -53
-7 -3 -6 -5 1 -5 9 -1 10 -8 4 -24 -4 -12 -5 -33 -1 -47 4 -14 4 -34 0 -45 -3
-11 -5 -29 -4 -40 4 -30 6 -120 5 -215 -2 -80 1 -165 5 -172 3 -4 -1 -8 -8 -8
-9 0 -10 -3 -2 -8 7 -4 8 -15 4 -27 -4 -11 -4 -32 1 -47 4 -14 5 -28 3 -31 -2
-2 -6 -62 -9 -133 -5 -142 -7 -153 -29 -236 -40 -149 -142 -297 -276 -401 -28
-22 -32 -29 -20 -36 8 -6 18 -7 22 -5 5 3 337 5 738 6 l731 0 -48 36 c-60 46
-137 125 -173 177 -59 86 -109 214 -126 320 -4 22 -8 993 -9 2157 l-2 2117 31
10 c29 9 52 14 121 26 151 26 505 26 680 1 332 -49 580 -206 694 -439 42 -87
65 -150 75 -207 3 -19 9 -46 12 -60 12 -52 11 -262 -2 -334 -42 -240 -164
-442 -369 -609 -126 -103 -330 -208 -536 -277 -61 -20 -77 -25 -117 -34 -9 -2
-35 -9 -57 -15 -22 -5 -56 -13 -75 -16 -19 -3 -58 -10 -87 -16 -49 -10 -89
-15 -125 -18 -14 -1 -13 -6 8 -43 13 -24 29 -54 36 -68 6 -14 61 -110 122
-215 91 -158 155 -262 329 -540 95 -151 367 -549 379 -553 4 -2 8 -8 8 -14 0
-6 10 -22 23 -37 12 -15 31 -40 42 -55 22 -30 99 -132 118 -156 7 -8 37 -47
67 -85 30 -39 60 -76 67 -83 7 -7 29 -34 50 -60 21 -26 40 -49 43 -52 3 -3 34
-39 70 -80 67 -78 354 -367 431 -433 239 -208 507 -353 709 -384 71 -11 313
-6 560 12 41 3 113 8 160 10 114 7 204 15 208 20 2 2 -27 18 -65 36 -79 38
-166 90 -171 101 -2 4 -9 8 -15 8 -29 0 -286 197 -476 365 -207 183 -508 496
-751 780 -56 66 -114 134 -129 150 -14 17 -60 73 -101 125 -41 52 -79 100 -85
106 -5 7 -21 26 -35 44 -14 18 -37 47 -52 65 -16 18 -28 37 -28 43 0 6 -4 12
-8 14 -12 4 -232 297 -232 308 0 4 -4 10 -8 12 -4 2 -23 26 -42 53 -19 28 -37
52 -40 55 -6 6 -31 42 -110 160 -36 52 -68 97 -72 98 -4 2 -8 8 -8 13 0 5 -16
33 -35 62 -19 28 -35 55 -35 58 0 4 28 12 63 19 34 6 67 12 72 14 6 2 24 6 40
10 209 53 401 139 583 264 309 211 529 551 579 892 10 71 9 311 -1 370 -5 25
-10 54 -11 65 -6 53 -58 222 -91 291 -13 28 -24 56 -24 62 0 7 -4 12 -10 12
-5 0 -10 5 -10 11 0 24 -111 177 -177 244 -88 90 -124 122 -199 172 -56 38
-77 51 -166 101 -73 41 -233 104 -338 133 -25 7 -49 14 -55 15 -62 18 -208 50
-270 58 -16 2 -46 6 -65 10 -43 6 -126 16 -200 22 -56 5 -689 12 -693 8z"/>
<path d="M3397 6513 c-2 -1 -72 -3 -156 -5 -84 -2 -157 -5 -162 -8 -5 -3 15
-18 44 -33 58 -30 78 -42 124 -74 17 -13 36 -23 41 -23 6 0 12 -4 14 -8 2 -4
31 -29 65 -55 35 -27 100 -86 145 -132 92 -92 94 -95 156 -174 43 -55 44 -56
100 -58 72 -2 206 -13 235 -19 12 -2 38 -7 57 -10 19 -3 51 -9 70 -14 19 -5
40 -10 45 -11 6 0 16 -5 23 -11 6 -6 12 -8 12 -4 0 6 54 -14 138 -50 23 -10
42 -22 42 -26 0 -5 5 -8 11 -8 10 0 85 -49 122 -80 137 -114 233 -294 265
-500 8 -49 7 -266 0 -315 -11 -69 -27 -128 -48 -185 -21 -56 -61 -141 -70
-150 -3 -3 -22 -30 -42 -60 -77 -113 -222 -243 -374 -334 -120 -72 -429 -198
-519 -211 -11 -1 -51 -10 -90 -18 -77 -17 -116 -24 -190 -32 -27 -4 -50 -7
-51 -8 -1 -1 37 -69 83 -152 47 -82 97 -170 111 -195 13 -25 31 -52 38 -61 8
-8 14 -19 14 -23 0 -12 222 -370 232 -374 4 -2 8 -8 8 -13 0 -9 180 -283 295
-449 130 -189 408 -553 512 -670 12 -14 31 -36 43 -50 130 -155 393 -419 515
-515 27 -22 55 -44 62 -50 28 -23 40 -32 73 -55 19 -13 41 -30 48 -37 7 -7 17
-13 22 -13 5 0 15 -6 22 -12 17 -17 78 -51 158 -89 36 -17 79 -38 95 -47 17
-9 31 -15 33 -14 1 1 3 2 5 1 28 -9 127 -32 152 -36 43 -6 235 -9 235 -3 0 3
35 5 78 6 42 0 131 4 197 7 106 6 170 10 320 22 22 2 58 4 80 5 l40 1 -40 17
c-44 19 -217 112 -225 121 -3 3 -32 24 -65 45 -67 44 -249 180 -275 206 -9 9
-26 23 -39 32 -99 69 -568 537 -754 752 -10 12 -33 37 -50 56 -18 19 -66 76
-107 125 -41 50 -77 92 -81 95 -3 3 -52 64 -109 135 -57 72 -108 132 -112 133
-4 2 -8 10 -8 17 0 7 -4 15 -8 17 -5 1 -31 32 -58 68 -27 36 -53 70 -59 76 -5
6 -17 21 -25 34 -8 12 -36 49 -61 83 -26 34 -74 100 -108 147 -33 47 -70 96
-81 110 -11 14 -20 29 -20 33 0 4 -11 20 -25 35 -14 15 -25 32 -25 39 0 6 -4
13 -8 15 -5 2 -31 37 -58 78 -27 41 -55 81 -61 88 -7 7 -13 17 -13 22 0 5 -6
15 -12 22 -17 18 -40 59 -36 63 2 2 19 5 38 8 89 14 263 63 362 103 155 62
260 120 388 213 67 49 98 75 174 146 42 40 136 153 136 164 0 6 4 11 9 11 12
0 72 100 121 201 87 179 121 346 116 559 -5 155 -6 168 -30 275 -54 235 -163
434 -325 595 -36 36 -84 79 -106 95 -22 17 -49 38 -59 48 -11 9 -26 17 -33 17
-7 0 -13 4 -13 9 0 26 -377 194 -484 217 -10 2 -33 8 -50 13 -17 6 -42 12 -56
15 -14 3 -36 8 -50 11 -14 4 -36 8 -50 9 -14 2 -36 6 -50 9 -42 11 -136 24
-225 32 -27 3 -70 7 -95 11 -45 5 -668 12 -673 7z"/>
</g>
</svg>
